<?xml version="1.0" standalone="no"?>
<!DOCTYPE svg PUBLIC "-//W3C//DTD SVG 20010904//EN"
 "http://www.w3.org/TR/2001/REC-SVG-20010904/DTD/svg10.dtd">
<svg version="1.0" xmlns="http://www.w3.org/2000/svg"
 width="225.000000pt" height="225.000000pt" viewBox="0 0 225.000000 225.000000"
 preserveAspectRatio="xMidYMid meet">

<g transform="translate(0.000000,225.000000) scale(0.100000,-0.100000)"
fill="#000000" stroke="none">
<path d="M1065 2011 c-550 -120 -1012 -220 -1026 -224 -15 -4 -29 -14 -33 -22
-3 -9 8 -79 24 -156 l30 -140 0 -712 c0 -541 3 -716 12 -725 9 -9 264 -12
1085 -12 1050 0 1073 0 1083 19 7 13 10 259 10 730 0 632 -2 711 -16 725 -14
14 -108 16 -882 17 l-867 0 849 184 c520 112 852 189 857 197 5 7 9 18 9 24 0
27 -62 289 -72 301 -6 7 -22 13 -37 12 -14 -1 -476 -99 -1026 -218z m935 105
c0 -3 -30 -52 -66 -110 -43 -70 -73 -108 -87 -111 -85 -20 -202 -43 -205 -40
-4 4 105 183 125 205 18 20 233 71 233 56z m-710 -151 c0 -9 -122 -205 -134
-214 -13 -10 -212 -54 -225 -49 -7 2 101 191 123 215 2 3 208 51 224 52 6 1
12 -1 12 -4z m-723 -162 c-11 -22 -129 -213 -131 -213 -2 0 -54 -11 -116 -25
-62 -14 -115 -24 -116 -22 -2 1 28 52 66 112 l68 110 94 21 c101 23 141 28
135 17z m52 -400 c-7 -10 -47 -53 -88 -95 l-76 -78 -117 0 c-65 0 -118 3 -118
7 0 4 39 47 87 95 l88 88 119 0 c111 0 118 -1 105 -17z m664 -78 l-88 -95
-125 0 -124 0 44 48 c25 26 65 68 90 95 l44 47 124 0 123 0 -88 -95z m727 0
l-95 -95 -119 0 -120 0 90 94 89 93 125 2 125 1 -95 -95z m150 -700 l0 -515
-1005 0 -1005 0 0 515 0 515 1005 0 1005 0 0 -515z"/>
<path d="M287 1012 c-22 -24 -21 -35 1 -55 16 -15 49 -17 260 -17 205 0 243 2
256 16 20 20 20 38 0 58 -13 14 -51 16 -258 16 -223 0 -244 -2 -259 -18z"/>
<path d="M287 812 c-22 -24 -21 -35 1 -55 17 -15 67 -17 520 -17 442 0 502 2
516 16 20 20 20 38 0 58 -14 14 -74 16 -518 16 -475 0 -504 -1 -519 -18z"/>
<path d="M286 608 c-20 -28 -20 -33 0 -52 13 -14 64 -16 403 -16 407 0 411 0
411 45 0 45 -4 45 -411 45 l-388 0 -15 -22z"/>
<path d="M1232 618 c-15 -15 -15 -51 0 -66 29 -29 108 -5 108 33 0 38 -79 62
-108 33z"/>
</g>
</svg>
