<svg width="40" height="41" viewBox="0 0 40 41" fill="none" xmlns="http://www.w3.org/2000/svg">
<rect y="0.5" width="40" height="40" rx="14" fill="#EDEDED"/>
<g clip-path="url(#clip0_1202_1613)">
<path d="M11.4863 23.3401C11.4863 23.7203 11.7945 24.0284 12.1746 24.0284C12.5548 24.0284 12.863 23.7203 12.863 23.3401V17.9595C12.863 17.681 12.6953 17.4301 12.438 17.3235C12.181 17.2171 11.8848 17.2759 11.6879 17.4728L9.9438 19.2169C9.67498 19.4857 9.67498 19.9216 9.9438 20.1903C10.2126 20.4591 10.6485 20.4591 10.9172 20.1903L11.4863 19.6212V23.3401Z" fill="black"/>
<path d="M15.552 11.4192L16.1211 10.8501V14.569C16.1211 14.9491 16.4293 15.2573 16.8094 15.2573C17.1896 15.2573 17.4977 14.9491 17.4977 14.569V9.18834C17.4977 8.90988 17.3301 8.65896 17.0728 8.55241C16.8157 8.44595 16.5196 8.50477 16.3227 8.70164L14.5786 10.4458C14.3097 10.7146 14.3097 11.1505 14.5786 11.4192C14.8474 11.688 15.2832 11.688 15.552 11.4192Z" fill="black"/>
<path d="M23.4019 17.3235C23.1448 17.2171 22.8487 17.2759 22.6518 17.4728L20.9077 19.2169C20.6389 19.4857 20.6389 19.9216 20.9077 20.1903C21.1765 20.4591 21.6123 20.4591 21.8811 20.1903L22.4502 19.6212V23.3401C22.4502 23.7203 22.7584 24.0284 23.1385 24.0284C23.5187 24.0284 23.8268 23.7203 23.8268 23.3401V17.9595C23.8268 17.6811 23.6592 17.4301 23.4019 17.3235Z" fill="black"/>
<path d="M20.4097 25.7951C20.1527 25.6886 19.8565 25.7474 19.6596 25.9443L17.9155 27.6885C17.6467 27.9573 17.6467 28.3931 17.9155 28.6619C18.1843 28.9307 18.6202 28.9307 18.8889 28.6619L19.458 28.0927V30.1299C19.458 30.5101 19.7662 30.8183 20.1463 30.8183C20.5265 30.8183 20.8347 30.5101 20.8347 30.1299V26.431C20.8347 26.1526 20.667 25.9016 20.4097 25.7951Z" fill="black"/>
<path d="M19.2437 21.6628V19.6369C19.2437 18.3324 18.1825 17.2712 16.878 17.2712H16.8442C15.5397 17.2712 14.4785 18.3324 14.4785 19.6369V21.6628C14.4785 22.9672 15.5397 24.0284 16.8442 24.0284H16.878C18.1825 24.0284 19.2437 22.9672 19.2437 21.6628ZM17.867 21.6628C17.867 22.2081 17.4234 22.6518 16.878 22.6518H16.8442C16.2988 22.6518 15.8552 22.2081 15.8552 21.6628V19.6369C15.8552 19.0915 16.2988 18.6479 16.8442 18.6479H16.878C17.4234 18.6479 17.867 19.0915 17.867 19.6369V21.6628Z" fill="black"/>
<path d="M27.8927 17.2711H27.8588C26.5544 17.2711 25.4932 18.3323 25.4932 19.6368V21.6627C25.4932 22.9671 26.5544 24.0284 27.8588 24.0284H27.8927C29.1971 24.0284 30.2584 22.9671 30.2584 21.6627V19.6368C30.2584 18.3324 29.1971 17.2711 27.8927 17.2711ZM28.8817 21.6628C28.8817 22.2081 28.438 22.6518 27.8927 22.6518H27.8588C27.3135 22.6518 26.8698 22.2081 26.8698 21.6628V19.6369C26.8698 19.0915 27.3135 18.6479 27.8588 18.6479H27.8927C28.438 18.6479 28.8817 19.0915 28.8817 19.6369V21.6628Z" fill="black"/>
<path d="M21.5118 8.5H21.478C20.1735 8.5 19.1123 9.56123 19.1123 10.8657V12.8916C19.1123 14.196 20.1735 15.2572 21.478 15.2572H21.5118C21.892 15.2572 22.2002 14.949 22.2002 14.5689C22.2002 14.1888 21.892 13.8806 21.5118 13.8806H21.478C20.9326 13.8806 20.489 13.4369 20.489 12.8916V10.8657C20.489 10.3203 20.9326 9.87667 21.478 9.87667H21.5118C22.0572 9.87667 22.5008 10.3203 22.5008 10.8657C22.5008 11.2458 22.809 11.554 23.1892 11.554C23.5693 11.554 23.8775 11.2458 23.8775 10.8657C23.8776 9.56123 22.8164 8.5 21.5118 8.5Z" fill="black"/>
<path d="M27.8927 8.5H27.8588C26.5544 8.5 25.4932 9.56123 25.4932 10.8657V12.8916C25.4932 14.196 26.5544 15.2572 27.8588 15.2572H27.8927C29.1971 15.2572 30.2584 14.196 30.2584 12.8916V10.8657C30.2584 9.56123 29.1971 8.5 27.8927 8.5ZM28.8817 12.8917C28.8817 13.437 28.438 13.8807 27.8927 13.8807H27.8588C27.3135 13.8807 26.8698 13.437 26.8698 12.8917V10.8657C26.8698 10.3203 27.3135 9.87667 27.8588 9.87667H27.8927C28.438 9.87667 28.8817 10.3203 28.8817 10.8657V12.8917Z" fill="black"/>
<path d="M13.6613 25.7427H13.6274C12.3229 25.7427 11.2617 26.8039 11.2617 28.1083V30.1342C11.2617 31.4387 12.3229 32.4999 13.6274 32.4999H13.6613C14.9657 32.4999 16.0269 31.4387 16.0269 30.1342V28.1083C16.027 26.804 14.9658 25.7427 13.6613 25.7427ZM14.6503 30.1343C14.6503 30.6797 14.2067 31.1233 13.6613 31.1233H13.6275C13.0821 31.1233 12.6385 30.6797 12.6385 30.1343V28.1083C12.6385 27.563 13.0821 27.1193 13.6275 27.1193H13.6613C14.2067 27.1193 14.6503 27.563 14.6503 28.1083V30.1343Z" fill="black"/>
</g>
<defs>
<clipPath id="clip0_1202_1613">
<rect width="24" height="24" fill="white" transform="translate(8 8.5)"/>
</clipPath>
</defs>
</svg>
