<?xml version="1.0" standalone="no"?>
<!DOCTYPE svg PUBLIC "-//W3C//DTD SVG 20010904//EN"
 "http://www.w3.org/TR/2001/REC-SVG-20010904/DTD/svg10.dtd">
<svg version="1.0" xmlns="http://www.w3.org/2000/svg"
 width="2048.000000pt" height="2048.000000pt" viewBox="0 0 2048.000000 2048.000000"
 preserveAspectRatio="xMidYMid meet">

<g transform="translate(0.000000,2048.000000) scale(0.100000,-0.100000)"
fill="#000000" stroke="none">
<path d="M9655 17561 c-4570 -1285 -8316 -2339 -8323 -2341 -10 -4 54 -245
257 -969 l271 -963 0 -1089 0 -1089 405 0 405 0 0 -4312 c0 -3083 3 -4339 11
-4403 16 -130 51 -244 114 -370 166 -334 486 -558 860 -604 128 -16 13872 -16
14000 0 239 29 459 134 629 298 163 158 254 313 319 539 l22 77 5 4385 5 4385
278 3 277 2 0 1100 0 1100 -8256 2 -8255 3 398 112 c219 62 1487 418 2818 792
1331 374 2627 738 2880 809 253 71 2564 720 5135 1442 2571 722 4678 1316
4682 1319 3 3 -127 480 -290 1059 -272 968 -297 1052 -316 1051 -12 -1 -3760
-1053 -8331 -2338z m8093 1837 c145 -511 372 -1328 372 -1335 0 -5 -89 -35
-197 -66 l-198 -56 -20 23 c-11 12 -142 173 -292 357 -149 184 -286 351 -305
371 l-33 37 -862 -212 c-474 -117 -864 -215 -868 -218 -3 -4 143 -193 324
-420 182 -228 327 -416 323 -420 -6 -5 -450 -131 -1375 -389 l-98 -28 -136
167 c-74 91 -235 288 -357 438 -121 150 -226 272 -233 273 -15 0 -1726 -419
-1731 -425 -5 -5 -12 3 400 -513 200 -249 333 -424 326 -427 -33 -11 -1454
-408 -1464 -409 -7 -1 -123 136 -259 304 -497 611 -547 671 -564 666 -9 -3
-394 -98 -856 -211 -462 -113 -846 -207 -853 -210 -9 -3 -10 -10 -3 -22 5 -10
187 -241 405 -513 218 -272 393 -497 388 -501 -4 -4 -315 -93 -692 -199 -377
-105 -706 -197 -732 -205 l-47 -14 -400 493 c-221 272 -418 513 -439 536 l-38
44 -872 -214 c-773 -190 -870 -216 -859 -229 74 -90 879 -1102 880 -1107 2 -6
-1475 -427 -1479 -421 -13 19 -869 1072 -929 1143 l-20 24 -529 -130 c-291
-72 -530 -129 -532 -127 -3 3 669 194 1786 508 410 116 1130 318 1600 450 470
133 1190 335 1600 450 410 115 1130 318 1600 450 1919 539 2369 666 2885 810
297 83 783 220 1080 304 297 84 774 219 1060 299 963 269 2236 628 2725 766
267 76 490 139 497 139 7 1 16 -14 21 -31z m-14871 -4154 c-3 -3 -12 -4 -19
-1 -8 3 -5 6 6 6 11 1 17 -2 13 -5z m-181 -771 c264 -329 480 -602 482 -608 3
-13 -987 -290 -997 -279 -8 8 -374 1302 -383 1348 -3 17 22 26 197 76 110 32
205 58 211 59 7 0 227 -268 490 -596z m14034 -1558 c0 -3 -94 -222 -209 -488
-114 -265 -252 -584 -306 -709 l-97 -228 -773 0 -773 0 127 298 c261 608 473
1113 470 1116 -7 5 -1797 -79 -1802 -84 -5 -5 -181 -409 -451 -1035 l-125
-290 -770 -3 c-424 -1 -771 1 -771 5 0 3 105 254 234 557 129 303 248 584 265
624 l30 72 -28 0 c-73 0 -1775 -81 -1778 -84 -4 -4 -125 -282 -481 -1106 l-28
-65 -772 -3 c-425 -1 -772 0 -772 3 0 2 89 215 199 472 249 587 264 623 260
627 -2 2 -380 -13 -839 -35 -459 -21 -863 -38 -897 -39 l-62 0 -23 -52 c-14
-29 -114 -261 -224 -515 l-199 -462 -774 -1 c-615 0 -772 3 -768 13 3 6 75
176 160 377 85 201 173 409 196 463 l40 97 -52 0 c-89 -1 -1749 -78 -1753 -82
-4 -4 -335 -766 -361 -830 l-15 -38 -279 0 -279 0 0 715 0 715 7240 0 c3982 0
7240 -2 7240 -5z m2080 -710 l0 -715 -455 0 -455 0 9 23 c5 12 59 139 121 282
98 229 421 986 463 1088 l16 37 150 0 151 0 0 -715z m-602 -5452 l-3 -4358
-27 -80 c-80 -235 -270 -409 -502 -460 -64 -14 -760 -15 -7056 -13 l-6985 3
-65 23 c-101 36 -199 99 -275 177 -80 81 -125 152 -163 257 l-27 73 -3 4368
-2 4367 7555 0 7555 0 -2 -4357z"/>
<path d="M6670 10349 c-438 -45 -1060 -212 -1760 -473 -163 -61 -722 -284
-736 -294 -7 -5 -7 -72 -1 -217 14 -316 13 -1729 -1 -2085 -40 -983 -70 -1422
-228 -3312 -49 -581 -85 -1060 -81 -1064 4 -4 287 80 630 186 342 106 773 240
957 297 184 57 338 107 342 111 3 4 16 417 28 917 11 501 23 952 26 1003 l6
93 258 194 258 194 0 -272 c0 -397 33 -642 128 -926 88 -266 206 -463 384
-641 202 -203 408 -314 700 -377 135 -29 485 -26 640 5 172 35 395 112 565
196 227 112 388 224 653 451 23 20 42 33 42 28 -1 -4 -27 -192 -59 -418 -32
-225 -57 -411 -56 -412 0 -1 449 -16 996 -33 925 -28 1065 -30 2023 -28 l1030
3 53 119 c29 65 55 121 58 124 3 3 13 -5 22 -19 9 -13 49 -57 87 -97 237 -247
619 -363 1003 -306 277 41 509 152 688 329 146 144 229 301 262 492 40 239
-41 484 -222 668 -125 127 -280 221 -447 269 -55 16 -84 29 -86 40 -3 14 -25
16 -185 15 -100 -1 -207 -4 -237 -8 -47 -6 -37 -7 75 -13 171 -9 297 -41 435
-110 88 -44 118 -66 190 -138 61 -61 95 -104 118 -151 152 -314 7 -658 -361
-850 -343 -179 -786 -164 -1084 39 -321 218 -366 613 -101 897 105 112 235
198 373 245 l49 17 66 149 c38 84 73 150 81 152 9 1 357 -72 774 -162 417 -91
759 -165 760 -163 1 1 538 782 1194 1736 904 1316 1188 1737 1178 1743 -20 11
-2195 818 -2204 818 -5 0 -87 -178 -183 -395 -147 -333 -177 -395 -195 -395
-46 -1 -1860 63 -1863 65 -1 1 33 132 77 291 43 159 76 292 72 295 -5 5 -1189
80 -1247 79 -18 0 -36 -31 -110 -195 l-89 -195 -943 -2 -944 -3 -60 -160 c-33
-88 -61 -161 -63 -163 -1 -2 -14 17 -28 41 -83 141 -273 355 -402 451 -166
125 -357 208 -554 241 -151 26 -384 17 -544 -19 -175 -40 -331 -97 -522 -190
l-170 -82 -1 185 c-1 214 -17 319 -71 483 -132 399 -447 642 -910 703 -124 16
-392 18 -533 4z m490 -188 c109 -22 241 -68 309 -107 230 -134 365 -360 402
-675 20 -171 1 -461 -45 -677 -15 -74 -18 -74 86 -4 250 168 555 315 799 386
223 64 480 73 673 22 354 -92 637 -364 868 -834 l81 -163 120 310 120 311 748
0 c510 0 749 -3 749 -10 0 -6 -101 -396 -225 -867 -124 -471 -224 -858 -222
-860 2 -1 226 468 497 1045 271 576 497 1051 502 1057 8 9 863 -37 874 -47 2
-3 -171 -630 -385 -1394 -215 -763 -389 -1389 -388 -1391 2 -1 225 490 497
1093 272 602 496 1097 499 1099 5 3 1346 -40 1463 -47 l47 -3 -1026 -2252
-1026 -2253 -888 0 c-633 0 -889 3 -889 11 0 6 59 263 130 571 72 309 129 562
127 564 -1 2 -108 -252 -236 -564 -128 -312 -236 -570 -240 -575 -7 -7 -1670
38 -1677 46 -2 2 39 300 90 663 52 362 94 660 93 661 -2 1 -34 -46 -74 -105
-39 -59 -101 -145 -139 -192 -86 -107 -283 -305 -394 -394 -295 -236 -656
-411 -990 -478 -96 -19 -147 -23 -305 -23 -205 0 -272 9 -416 56 -427 138
-721 498 -838 1027 -45 199 -55 315 -55 602 0 266 6 368 40 603 8 60 13 111
11 114 -3 2 -226 -156 -496 -353 l-491 -357 0 -46 c-1 -25 -11 -453 -24 -950
-18 -670 -27 -905 -36 -911 -17 -11 -1490 -453 -1494 -449 -1 2 21 276 50 609
174 1991 215 2581 245 3530 12 383 8 1889 -5 1921 -8 18 -27 9 358 155 885
336 1446 487 2031 548 98 10 402 -4 495 -23z m9715 -1372 c473 -171 863 -313
867 -317 5 -5 -2100 -2995 -2148 -3051 -3 -3 -1206 248 -1210 252 -2 2 1462
3202 1560 3414 14 30 18 32 43 22 16 -6 415 -150 888 -320z"/>
<path d="M6530 10044 c-350 -42 -793 -154 -1324 -334 -224 -76 -654 -234 -761
-280 l-48 -20 7 -62 c14 -133 18 -1154 7 -1583 -27 -1041 -68 -1658 -240
-3620 -26 -302 -47 -551 -46 -553 2 -3 1237 367 1242 372 2 1 13 424 27 940
13 515 25 939 27 940 19 18 1284 934 1287 932 2 -2 -11 -77 -27 -167 -158
-856 -92 -1534 191 -1946 316 -461 898 -585 1540 -327 536 215 991 645 1261
1192 76 155 81 163 105 157 13 -3 38 -9 54 -12 16 -3 31 -11 34 -17 2 -6 -48
-364 -110 -796 -63 -432 -113 -786 -112 -787 4 -5 1376 -44 1417 -41 l41 3
368 893 c202 491 370 896 373 898 7 7 117 -27 117 -36 0 -8 -399 -1732 -405
-1748 -4 -10 152 -12 771 -10 l776 3 968 2125 967 2125 -131 7 c-191 10 -1107
40 -1110 36 -2 -2 -297 -655 -656 -1453 -359 -797 -655 -1452 -657 -1454 -8
-10 -113 33 -113 46 0 7 218 790 485 1740 267 949 484 1727 483 1728 -2 2
-146 11 -320 22 l-317 18 -632 -1340 c-347 -737 -633 -1341 -634 -1343 -4 -5
-115 41 -115 47 0 4 133 512 295 1129 162 618 295 1128 295 1133 0 6 -246 8
-626 7 l-626 -3 -161 -417 c-88 -230 -164 -418 -167 -418 -4 0 -33 71 -65 157
-168 451 -393 779 -644 941 -259 167 -575 192 -944 76 -258 -82 -570 -254
-919 -505 -75 -55 -139 -99 -141 -99 -3 0 13 69 34 154 166 662 131 1104 -106
1341 -164 164 -364 226 -720 224 -99 -1 -232 -7 -295 -15z m-87 -1576 c61 -13
135 -63 159 -108 25 -47 24 -135 -3 -202 -76 -193 -411 -522 -726 -711 -63
-39 -203 -100 -210 -93 -8 8 35 1038 44 1046 18 17 330 71 483 84 61 5 194 -3
253 -16z m2600 -1054 c128 -42 238 -178 281 -349 52 -205 47 -544 -14 -908
-77 -462 -373 -818 -766 -922 -135 -36 -336 -36 -478 0 -197 50 -326 180 -367
370 -41 195 11 498 143 829 120 302 231 480 412 661 276 276 562 391 789 319z"/>
<path d="M6077 8345 c-94 -13 -248 -42 -253 -48 -4 -4 -32 -741 -28 -746 6 -7
168 107 274 192 135 108 324 305 373 388 72 123 72 175 -1 206 -51 22 -241 26
-365 8z"/>
<path d="M8790 7294 c-76 -19 -222 -94 -302 -154 -226 -171 -396 -412 -532
-758 -138 -348 -180 -647 -117 -813 63 -165 248 -250 511 -236 130 7 199 25
315 83 260 128 448 391 514 719 55 273 73 683 37 850 -46 215 -151 326 -305
324 -37 0 -91 -7 -121 -15z m279 -319 c109 -29 143 -91 149 -277 10 -303 -123
-742 -311 -1023 -95 -141 -254 -267 -381 -301 -100 -27 -278 -11 -340 30 -47
30 -60 71 -60 186 0 58 8 144 17 193 35 173 166 543 248 696 120 224 348 425
559 492 67 22 55 21 119 4z"/>
<path d="M15293 7363 c-403 -879 -731 -1598 -730 -1599 3 -3 955 -204 966
-204 16 0 2024 2841 2014 2850 -4 5 -210 81 -458 170 -905 326 -1055 380
-1058 380 -2 0 -332 -719 -734 -1597z"/>
<path d="M14313 5083 c9 -2 23 -2 30 0 6 3 -1 5 -18 5 -16 0 -22 -2 -12 -5z"/>
<path d="M14250 4945 c-256 -51 -475 -197 -566 -377 -123 -242 -19 -499 258
-639 221 -112 551 -118 791 -14 121 52 184 93 268 175 224 220 216 507 -21
703 -69 58 -212 125 -315 147 -106 23 -312 26 -415 5z"/>
</g>
</svg>
